<svg enable-background="new 0 0 800 800" height="800" viewBox="0 0 800 800" width="800" xmlns="http://www.w3.org/2000/svg"><path d="m66.667 133.026c0-36.649 29.94-66.36 66.36-66.36h533.947c36.649 0 66.359 29.94 66.359 66.36v533.947c0 36.649-29.94 66.359-66.359 66.359h-533.948c-36.649 0-66.36-29.94-66.36-66.359v-533.947zm333.333 366.974v-33.333c0-33.334 0-50 33.333-66.667 33.334-16.667 66.667-33.333 66.667-83.333 0-33.333-33.333-83.333-100-83.333s-100 42.138-100 100m100 199.999v66.667" fill="none" stroke="#424242" stroke-width="40"/></svg>