<?xml version="1.0" encoding="utf-8"?>
<!-- Generator: Adobe Illustrator 13.0.0, SVG Export Plug-In . SVG Version: 6.00 Build 14948)  -->
<!DOCTYPE svg PUBLIC "-//W3C//DTD SVG 1.1//EN" "http://www.w3.org/Graphics/SVG/1.1/DTD/svg11.dtd">
<svg version="1.1" id="Layer_1" xmlns="http://www.w3.org/2000/svg" xmlns:xlink="http://www.w3.org/1999/xlink" x="0px" y="0px"
	 width="800px" height="800px" viewBox="0 0 800 800" enable-background="new 0 0 800 800" xml:space="preserve">
<path fill="none" stroke="#424242" stroke-width="40" d="M66.667,133.026c0-36.649,29.94-66.36,66.36-66.36h533.947
	c36.649,0,66.359,29.94,66.359,66.36v533.947c0,36.649-29.94,66.359-66.359,66.359H133.026c-36.649,0-66.36-29.94-66.36-66.359
	V133.026z M400,500v-33.333c0-33.334,0-50,33.333-66.667C466.667,383.333,500,366.667,500,316.667
	c0-33.333-33.333-83.333-100-83.333s-100,42.138-100,100 M400,533.333V600"/>
</svg>
