<?xml version="1.0" encoding="utf-8"?>
<!-- Generator: Adobe Illustrator 13.0.0, SVG Export Plug-In . SVG Version: 6.00 Build 14948)  -->
<!DOCTYPE svg PUBLIC "-//W3C//DTD SVG 1.1//EN" "http://www.w3.org/Graphics/SVG/1.1/DTD/svg11.dtd">
<svg version="1.1" id="Layer_1" xmlns="http://www.w3.org/2000/svg" xmlns:xlink="http://www.w3.org/1999/xlink" x="0px" y="0px"
	 width="800px" height="800px" viewBox="-5.5 0 800 800" enable-background="new -5.5 0 800 800" xml:space="preserve">
<title>external</title>
<path fill="#E0E0E0" d="M531.25,212.512l-260.95,262.5l54.7,55.475l261.725-261.724l48.45,47.65c13.274,13.275,25,9.375,25-10.95
	v-141.4c0-12.5-10.95-24.225-24.226-24.225H494.55c-20.325,0-25,11.725-11.726,25L531.25,212.512z M560.175,575.787v-177.35h59.375
	v197.651c0,35.148-28.9,64.074-64.075,64.074H203.899c-35.149,0-64.074-28.9-64.074-64.074V243.737
	c0-35.15,28.899-64.075,64.074-63.275h216.4v59.375H224.2c-12.5,0-24.226,11.725-24.226,24.225v311.725
	c0,12.5,11.726,24.225,24.226,24.225h311.725c12.5,0,24.225-11.725,24.225-24.225H560.175z"/>
</svg>
