<svg enable-background="new 0 0 800 800" height="800" viewBox="0 0 800 800" width="800" xmlns="http://www.w3.org/2000/svg"><path d="m0 600c0 13.866 4.8 25.867 14.4 36 9.6 10.134 21.6 14.934 36 14.4h49.6c34.133 0 66.667-6.667 97.6-20 30.933-13.334 57.333-31.2 79.2-53.601 21.867-22.399 39.733-49.066 53.601-80 13.866-30.933 20.533-63.2 20-96.8 0-41.066 14.399-76.267 43.199-105.6 28.801-29.333 64.267-44 106.4-44h100v49.601c0 11.2 3.2 20.8 9.6 28.8s13.601 13.867 21.601 17.6 17.333 4.8 28 3.2 19.467-6.133 26.399-13.6l100-100c10.134-10.667 14.934-22.667 14.4-36-.533-13.333-5.333-25.066-14.4-35.2l-100-100c-8-7.467-17.066-12-27.199-13.6-10.134-1.6-19.467-.533-28 3.2-8.535 3.733-15.734 9.6-21.601 17.6-5.866 8-8.8 17.333-8.8 28v50.4h-100c-33.6 0-65.866 6.667-96.8 20s-57.601 30.934-80 52.8c-22.4 21.867-40.267 48.533-53.6 80s-19.733 63.733-19.2 96.8c0 41.6-14.667 77.066-44 106.4-29.333 29.333-64.8 44-106.4 44h-49.6c-13.867 0-25.867 4.8-36 14.399-10.133 9.601-14.933 21.335-14.4 35.201zm0-399.2c0 13.867 4.8 25.6 14.4 35.2s21.6 14.4 36 14.4h49.6c23.467 0 45.067 5.067 64.8 15.2s37.067 24 52 41.6c11.2-34.133 27.733-64.8 49.6-92-48.533-43.2-104-64.8-166.4-64.8h-49.6c-13.867 0-25.867 5.067-36 15.2s-14.933 21.867-14.4 35.2zm334.4 385.6c47.466 42.666 102.666 64 165.6 64h100v50.4c0 10.667 3.2 20.267 9.6 28.8 6.4 8.534 13.6 14.4 21.6 17.6s17.333 4 28 2.399c10.667-1.6 19.467-6.133 26.399-13.6l100-100c10.134-10.133 14.934-22.134 14.4-36s-5.333-25.333-14.4-34.4l-100-100c-8-8-17.066-12.8-27.199-14.399-10.134-1.601-19.467-.533-28 3.2-8.534 3.733-15.733 9.866-21.601 18.399-5.866 8.533-8.8 17.867-8.8 28v49.601h-99.999c-22.934 0-44.533-4.801-64.8-14.4s-37.333-23.467-51.2-41.6c-11.733 34.133-28.267 64.8-49.6 92z" fill="#fff"/></svg>