<?xml version="1.0" encoding="utf-8"?>
<!-- Generator: Adobe Illustrator 13.0.0, SVG Export Plug-In . SVG Version: 6.00 Build 14948)  -->
<!DOCTYPE svg PUBLIC "-//W3C//DTD SVG 1.1//EN" "http://www.w3.org/Graphics/SVG/1.1/DTD/svg11.dtd">
<svg version="1.1" id="Layer_1" xmlns="http://www.w3.org/2000/svg" xmlns:xlink="http://www.w3.org/1999/xlink" x="0px" y="0px"
	 width="800px" height="800px" viewBox="0 0 800 800" enable-background="new 0 0 800 800" xml:space="preserve">
<rect x="179" y="200" fill="#494949" width="442" height="400"/>
<path fill="#88FBFF" d="M400,50c193.3,0,350,156.7,350,350S593.3,750,400,750S50,593.3,50,400S206.7,50,400,50z M356.4,469.05
	l-77.75-77.8c-11.722-11.722-30.728-11.722-42.45,0c-11.723,11.723-11.723,30.728,0,42.45l99,99
	c11.631,11.722,30.563,11.796,42.284,0.165c0.056-0.055,0.11-0.11,0.166-0.165l205-205.05c11.817-11.613,11.983-30.607,0.371-42.425
	c-11.613-11.818-30.607-11.984-42.425-0.371c-0.116,0.114-0.232,0.229-0.347,0.346L356.4,469.05L356.4,469.05z"/>
</svg>
