<?xml version="1.0" encoding="utf-8"?>
<!-- Generator: Adobe Illustrator 13.0.0, SVG Export Plug-In . SVG Version: 6.00 Build 14948)  -->
<!DOCTYPE svg PUBLIC "-//W3C//DTD SVG 1.1//EN" "http://www.w3.org/Graphics/SVG/1.1/DTD/svg11.dtd">
<svg version="1.1" id="Layer_1" xmlns="http://www.w3.org/2000/svg" xmlns:xlink="http://www.w3.org/1999/xlink" x="0px" y="0px"
	 width="45px" height="45px" viewBox="0 0 45 45" enable-background="new 0 0 45 45" xml:space="preserve">
<path fill="#494949" d="M3.266,22.466c0-10.627,8.644-19.271,19.268-19.271c3.419,0,6.632,0.9,9.421,2.47l1.527-2.79
	c-3.248-1.828-6.9-2.814-10.626-2.869h-0.366C10.144,0.024,0.135,9.956,0,22.284V22.5c0.005,6.192,2.566,12.108,7.078,16.35
	L9.3,36.45c-3.852-3.632-6.035-8.692-6.034-13.986V22.466z M38.179,6.384l-2.163,2.325c3.704,3.618,5.791,8.579,5.789,13.757
	c0,10.624-8.644,19.268-19.267,19.268c-3.343,0-6.488-0.855-9.229-2.359l-1.601,2.854c3.307,1.816,7.02,2.77,10.792,2.768
	c12.424,0,22.502-10.074,22.502-22.5C45,16.424,42.539,10.612,38.181,6.384H38.179z M3.681,22.466
	c0,5.176,2.134,10.125,5.899,13.678l2.212-2.393c-3.096-2.938-4.85-7.018-4.849-11.286c0-8.599,6.994-15.591,15.59-15.591
	c2.781,0,5.39,0.733,7.654,2.016l1.565-2.861c-2.813-1.588-5.989-2.421-9.219-2.417C12.141,3.609,3.681,12.069,3.681,22.466z
	 M38.125,22.466c0,8.598-6.994,15.59-15.591,15.59c-2.595,0.004-5.149-0.645-7.429-1.885l-1.598,2.844
	c2.767,1.514,5.872,2.307,9.026,2.304c10.393,0,18.853-8.46,18.853-18.853c0-5.265-2.17-10.026-5.656-13.449l-2.219,2.389
	C36.467,14.327,38.129,18.311,38.125,22.466z M34.472,22.466c-0.006,6.588-5.346,11.927-11.934,11.932
	c-1.967,0.002-3.904-0.484-5.636-1.417l-1.59,2.825c2.218,1.206,4.702,1.836,7.227,1.832c8.371,0,15.178-6.807,15.178-15.176
	c0.003-4.041-1.61-7.915-4.481-10.759l-2.211,2.376C33.233,16.312,34.473,19.326,34.472,22.466z M7.361,22.466
	c0,4.315,1.813,8.216,4.715,10.984l2.2-2.382c-2.349-2.245-3.676-5.354-3.675-8.602c0.006-6.587,5.345-11.926,11.933-11.933
	c2.068-0.001,4.1,0.539,5.895,1.566l1.556-2.845c-2.271-1.288-4.839-1.965-7.451-1.965C14.169,7.29,7.361,14.096,7.361,22.466z
	 M30.855,22.466c-0.002,4.594-3.727,8.319-8.322,8.319c-1.347,0.001-2.673-0.326-3.864-0.954l-1.566,2.79
	c1.67,0.896,3.535,1.365,5.43,1.363c6.359-0.006,11.512-5.159,11.518-11.518c0.002-3.024-1.188-5.927-3.315-8.078l-2.178,2.344
	c1.473,1.545,2.295,3.599,2.295,5.734H30.855z M11.016,22.466c-0.002,3.133,1.277,6.13,3.54,8.297l2.169-2.344l0.026,0.025
	c-1.625-1.563-2.542-3.721-2.541-5.975c-0.001-4.594,3.722-8.318,8.316-8.32c0.001,0,0.002,0,0.003,0
	c1.46,0,2.895,0.386,4.158,1.122l1.537-2.809c-1.734-0.992-3.697-1.514-5.695-1.511C16.185,10.942,11.016,16.114,11.016,22.466z
	 M23.541,22.466c-0.034,0.556-0.513,0.979-1.069,0.946c-0.509-0.031-0.914-0.437-0.945-0.946c0-0.557,0.451-1.008,1.008-1.008
	c0.557,0,1.008,0.451,1.008,1.008H23.541z M16.153,22.466c0-3.521,2.854-6.376,6.376-6.376s6.375,2.854,6.375,6.376
	c0,3.521-2.854,6.375-6.375,6.375c-3.521,0-6.375-2.854-6.375-6.375H16.153z M16.433,22.466c0.004,3.366,2.731,6.093,6.097,6.098
	c3.369-0.002,6.098-2.73,6.101-6.098c0.002-3.369-2.729-6.101-6.097-6.102c-3.369-0.001-6.101,2.728-6.102,6.097
	C16.433,22.463,16.433,22.465,16.433,22.466z"/>
</svg>
