<?xml version="1.0" encoding="utf-8"?>
<!-- Generator: Adobe Illustrator 13.0.0, SVG Export Plug-In . SVG Version: 6.00 Build 14948)  -->
<!DOCTYPE svg PUBLIC "-//W3C//DTD SVG 1.1//EN" "http://www.w3.org/Graphics/SVG/1.1/DTD/svg11.dtd">
<svg version="1.1" id="Layer_1" xmlns="http://www.w3.org/2000/svg" xmlns:xlink="http://www.w3.org/1999/xlink" x="0px" y="0px"
	 width="24px" height="24px" viewBox="0 0 24 24" enable-background="new 0 0 24 24" xml:space="preserve">
<g>
	<g>
		<path fill="#FFFFFF" d="M12,1C5.925,1,1,5.925,1,12s4.925,11,11,11s11-4.925,11-11S18.075,1,12,1z M12,21.084
			c-5.017,0-9.083-4.067-9.083-9.084c0-5.017,4.066-9.083,9.083-9.083c5.017,0,9.084,4.066,9.084,9.083
			C21.084,17.017,17.017,21.084,12,21.084z"/>
	</g>
</g>
<path fill="#FFFFFF" d="M14.037,10.037h2v6h-6v-2h2.586l-5.33-5.33l1.414-1.414l5.33,5.33V10.037z"/>
</svg>
