<svg enable-background="new 0 0 800 800" height="800" viewBox="0 0 800 800" width="800" xmlns="http://www.w3.org/2000/svg"><path d="m179 200h442v400h-442z" fill="#494949"/><path d="m400 50c193.3 0 350 156.7 350 350s-156.7 350-350 350-350-156.7-350-350 156.7-350 350-350zm-43.6 419.05-77.75-77.8c-11.722-11.722-30.728-11.722-42.45 0-11.723 11.723-11.723 30.728 0 42.45l99 99c11.631 11.722 30.563 11.796 42.284.165.056-.055.11-.11.166-.165l205-205.05c11.817-11.613 11.983-30.607.371-42.425-11.613-11.818-30.607-11.984-42.425-.371-.116.114-.232.229-.347.346z" fill="#88fbff"/></svg>