<svg enable-background="new 0 0 800 800" height="800" viewBox="0 0 800 800" width="800" xmlns="http://www.w3.org/2000/svg"><path d="m267.245 95.377c54.909-54.909 143.935-54.909 198.845 0 56.203 56.205 54.421 147.288-2.545 201.33l-5.502 4.956-41.387 35.388 136.644 159.412c11.01-22.946 22.04-49.413 32.946-79.946 9.287-26.007 37.896-39.56 63.903-30.27 26.007 9.287 39.557 37.897 30.271 63.903-15.896 44.51-32.688 82.936-50.326 115.996l-6.654 12.147 47.856 55.833c17.971 20.967 15.544 52.53-5.423 70.504-19.656 16.847-48.629 15.767-66.98-1.71l-3.523-3.714-31.576-36.84c-10.483 11.424-21.196 21.55-32.13 30.497-57.281 46.864-115.518 57.137-164.998 57.137-107.643 0-216.666-85.86-216.666-216.667 0-37.877 14.358-72.767 31.503-101.434 17.368-29.04 39.764-55.3 60.895-76.883 8.197-8.37 16.365-16.202 24.208-23.39l7.724-6.968-19.959-23.286c-48.62-56.723-47.1-140.386 2.419-195.264l5.294-5.572zm72.175 305.223c-8.217 7.344-16.915 15.54-25.569 24.38-17.932 18.313-34.598 38.304-46.526 58.247-12.153 20.32-17.325 37.146-17.325 50.106 0 69.193 57.643 116.667 116.666 116.667 33.854 0 67.283-6.396 101.67-34.533 7.643-6.251 15.542-13.75 23.626-22.752l6.098-7.038zm55.956-234.513c-14.799-14.799-38.18-15.786-54.123-2.96l-3.297 2.96-5.161 5.161-3.318 3.676c-13.417 16.492-14.319 39.978-2.206 57.451l3.026 3.919 21.283 24.829 41.473-35.464 3.373-3.231c14.683-15.765 14.574-40.719-1.05-56.341z" fill="#fff"/></svg>