<svg enable-background="new 0 0 800 800" height="800" viewBox="0 0 800 800" width="800" xmlns="http://www.w3.org/2000/svg"><path d="m600 66.667c36.82 0 66.666 29.848 66.666 66.667v433c0 5.587-1.256 10.717-3.76 15.724l-18.187 36.37c-4.69 9.383-4.69 20.43 0 29.813l18.127 36.253c2.439 4.63 3.819 9.907 3.819 15.507 0 18.41-14.923 33.333-33.333 33.333h-400c-55.228 0-100-44.77-100-100v-466.667c0-55.228 44.772-100 100-100zm-19.747 533.333h-346.92c-18.409 0-33.333 14.923-33.333 33.333 0 17.096 12.868 31.184 29.446 33.109l3.887.225h346.92c-6.776-19.165-7.529-39.899-2.259-59.412zm19.747-466.667h-366.667c-17.094 0-31.184 12.868-33.109 29.446l-.224 3.888v372.357c8.341-2.947 17.189-4.82 26.379-5.452l6.954-.238h366.667zm-133.334 100c18.41 0 33.334 14.924 33.334 33.333 0 17.095-12.868 31.184-29.446 33.109l-3.888.225h-133.333c-18.409 0-33.333-14.924-33.333-33.333 0-17.094 12.868-31.184 29.445-33.109l3.888-.224h133.333z" fill="#424242"/></svg>