<?xml version="1.0" encoding="utf-8"?>
<!-- Generator: Adobe Illustrator 13.0.0, SVG Export Plug-In . SVG Version: 6.00 Build 14948)  -->
<!DOCTYPE svg PUBLIC "-//W3C//DTD SVG 1.1//EN" "http://www.w3.org/Graphics/SVG/1.1/DTD/svg11.dtd">
<svg version="1.1" id="Layer_1" xmlns="http://www.w3.org/2000/svg" xmlns:xlink="http://www.w3.org/1999/xlink" x="0px" y="0px"
	 width="800px" height="800px" viewBox="0 0 800 800" enable-background="new 0 0 800 800" xml:space="preserve">
<title>align_center_fill</title>
<g>
	<path fill="#FFFFFF" d="M283.333,666.667c0,27.613-22.387,50-50,50s-50-22.387-50-50V133.333c0-27.614,22.387-50,50-50
		s50,22.386,50,50V666.667z"/>
	<path fill="#FFFFFF" d="M616.667,666.667c0,27.613-22.386,50-50,50c-25.99,0-47.349-19.831-49.771-45.186l-0.229-4.814V133.333
		c0-27.614,22.386-50,50.001-50c25.989,0,47.348,19.83,49.771,45.185l0.229,4.815V666.667z"/>
</g>
</svg>
