<?xml version="1.0" encoding="utf-8"?>
<!-- Generator: Adobe Illustrator 13.0.0, SVG Export Plug-In . SVG Version: 6.00 Build 14948)  -->
<!DOCTYPE svg PUBLIC "-//W3C//DTD SVG 1.1//EN" "http://www.w3.org/Graphics/SVG/1.1/DTD/svg11.dtd">
<svg version="1.1" id="Layer_1" xmlns="http://www.w3.org/2000/svg" xmlns:xlink="http://www.w3.org/1999/xlink" x="0px" y="0px"
	 width="800px" height="800px" viewBox="0 0 800 800" enable-background="new 0 0 800 800" xml:space="preserve">
<title>and_fill</title>
<path id="形状" fill="#FFFFFF" d="M267.245,95.377c54.909-54.909,143.935-54.909,198.845,0
	c56.203,56.205,54.421,147.288-2.545,201.33l-5.502,4.956l-41.387,35.388L553.3,496.463c11.01-22.946,22.04-49.413,32.946-79.946
	c9.287-26.007,37.896-39.56,63.903-30.27c26.007,9.287,39.557,37.897,30.271,63.903c-15.896,44.51-32.688,82.936-50.326,115.996
	l-6.654,12.147l47.856,55.833c17.971,20.967,15.544,52.53-5.423,70.504c-19.656,16.847-48.629,15.767-66.98-1.71l-3.523-3.714
	l-31.576-36.84c-10.483,11.424-21.196,21.55-32.13,30.497C474.383,739.727,416.146,750,366.666,750
	C259.023,750,150,664.14,150,533.333c0-37.877,14.358-72.767,31.503-101.434c17.368-29.04,39.764-55.3,60.895-76.883
	c8.197-8.37,16.365-16.202,24.208-23.39l7.724-6.968l-19.959-23.286c-48.62-56.723-47.1-140.386,2.419-195.264l5.294-5.572
	L267.245,95.377z M339.42,400.6c-8.217,7.344-16.915,15.54-25.569,24.38c-17.932,18.313-34.598,38.304-46.526,58.247
	C255.172,503.547,250,520.373,250,533.333C250,602.526,307.643,650,366.666,650c33.854,0,67.283-6.396,101.67-34.533
	c7.643-6.251,15.542-13.75,23.626-22.752l6.098-7.038L339.42,400.6z M395.376,166.087c-14.799-14.799-38.18-15.786-54.123-2.96
	l-3.297,2.96l-5.161,5.161l-3.318,3.676c-13.417,16.492-14.319,39.978-2.206,57.451l3.026,3.919l21.283,24.829l41.473-35.464
	l3.373-3.231C411.109,206.663,411,181.709,395.376,166.087z"/>
</svg>
