<svg enable-background="new 0 0 800 800" height="800" viewBox="0 0 800 800" width="800" xmlns="http://www.w3.org/2000/svg"><path d="m954 1431c0 27.6-22.4 50-50 50h-400c-27.6 0-50-22.4-50-50v-400c0-27.6 22.4-50 50-50h400c27.6 0 50 22.4 50 50zm-50-500h-400c-55.225 0-100 44.775-100 100v400c0 55.225 44.775 100 100 100h400c55.225 0 100-44.775 100-100v-400c0-55.225-44.775-100-100-100zm-150 700c0 27.6-22.4 50-50 50h-400c-27.6 0-50-22.4-50-50v-400c0-27.6 22.4-50 50-50h50v-50h-50c-55.225 0-100 44.775-100 100v400c0 55.225 44.775 100 100 100h400c55.225 0 100-44.775 100-100v-50h-50z" fill="#fff" transform="translate(-204 -931)"/></svg>