<svg enable-background="new -5.5 0 800 800" height="800" viewBox="-5.5 0 800 800" width="800" xmlns="http://www.w3.org/2000/svg"><path d="m531.25 212.512-260.95 262.5 54.7 55.475 261.725-261.724 48.45 47.65c13.274 13.275 25 9.375 25-10.95v-141.4c0-12.5-10.95-24.225-24.226-24.225h-141.399c-20.325 0-25 11.725-11.726 25zm28.925 363.275v-177.35h59.375v197.651c0 35.148-28.9 64.074-64.075 64.074h-351.576c-35.149 0-64.074-28.9-64.074-64.074v-352.351c0-35.15 28.899-64.075 64.074-63.275h216.4v59.375h-196.099c-12.5 0-24.226 11.725-24.226 24.225v311.725c0 12.5 11.726 24.225 24.226 24.225h311.725c12.5 0 24.225-11.725 24.225-24.225z" fill="#e0e0e0"/></svg>