<svg enable-background="new 0 0 45 45" height="45" viewBox="0 0 45 45" width="45" xmlns="http://www.w3.org/2000/svg"><path d="m3.266 22.466c0-10.627 8.644-19.271 19.268-19.271 3.419 0 6.632.9 9.421 2.47l1.527-2.79c-3.248-1.828-6.9-2.814-10.626-2.869h-.366c-12.346.018-22.355 9.95-22.49 22.278v.216c.005 6.192 2.566 12.108 7.078 16.35l2.222-2.4c-3.852-3.632-6.035-8.692-6.034-13.986zm34.913-16.082-2.163 2.325c3.704 3.618 5.791 8.579 5.789 13.757 0 10.624-8.644 19.268-19.267 19.268-3.343 0-6.488-.855-9.229-2.359l-1.601 2.854c3.307 1.816 7.02 2.77 10.792 2.768 12.424 0 22.502-10.074 22.502-22.5-.002-6.073-2.463-11.885-6.821-16.113zm-34.498 16.082c0 5.176 2.134 10.125 5.899 13.678l2.212-2.393c-3.096-2.938-4.85-7.018-4.849-11.286 0-8.599 6.994-15.591 15.59-15.591 2.781 0 5.39.733 7.654 2.016l1.565-2.861c-2.813-1.588-5.989-2.421-9.219-2.417-10.392-.003-18.852 8.457-18.852 18.854zm34.444 0c0 8.598-6.994 15.59-15.591 15.59-2.595.004-5.149-.645-7.429-1.885l-1.598 2.844c2.767 1.514 5.872 2.307 9.026 2.304 10.393 0 18.853-8.46 18.853-18.853 0-5.265-2.17-10.026-5.656-13.449l-2.219 2.389c2.956 2.921 4.618 6.905 4.614 11.06zm-3.653 0c-.006 6.588-5.346 11.927-11.934 11.932-1.967.002-3.904-.484-5.636-1.417l-1.59 2.825c2.218 1.206 4.702 1.836 7.227 1.832 8.371 0 15.178-6.807 15.178-15.176.003-4.041-1.61-7.915-4.481-10.759l-2.211 2.376c2.208 2.233 3.448 5.247 3.447 8.387zm-27.111 0c0 4.315 1.813 8.216 4.715 10.984l2.2-2.382c-2.349-2.245-3.676-5.354-3.675-8.602.006-6.587 5.345-11.926 11.933-11.933 2.068-.001 4.1.539 5.895 1.566l1.556-2.845c-2.271-1.288-4.839-1.965-7.451-1.965-8.365.001-15.173 6.807-15.173 15.177zm23.494 0c-.002 4.594-3.727 8.319-8.322 8.319-1.347.001-2.673-.326-3.864-.954l-1.566 2.79c1.67.896 3.535 1.365 5.43 1.363 6.359-.006 11.512-5.159 11.518-11.518.002-3.024-1.188-5.927-3.315-8.078l-2.178 2.344c1.473 1.545 2.295 3.599 2.295 5.734zm-19.839 0c-.002 3.133 1.277 6.13 3.54 8.297l2.169-2.344.026.025c-1.625-1.563-2.542-3.721-2.541-5.975-.001-4.594 3.722-8.318 8.316-8.32h.003c1.46 0 2.895.386 4.158 1.122l1.537-2.809c-1.734-.992-3.697-1.514-5.695-1.511-6.344-.009-11.513 5.163-11.513 11.515zm12.525 0c-.034.556-.513.979-1.069.946-.509-.031-.914-.437-.945-.946 0-.557.451-1.008 1.008-1.008s1.008.451 1.008 1.008zm-7.388 0c0-3.521 2.854-6.376 6.376-6.376s6.375 2.854 6.375 6.376c0 3.521-2.854 6.375-6.375 6.375s-6.375-2.854-6.375-6.375zm.28 0c.004 3.366 2.731 6.093 6.097 6.098 3.369-.002 6.098-2.73 6.101-6.098.002-3.369-2.729-6.101-6.097-6.102-3.369-.001-6.101 2.728-6.102 6.097.001.002.001.004.001.005z" fill="#494949"/></svg>