<?xml version="1.0" standalone="no"?>
<!DOCTYPE svg PUBLIC "-//W3C//DTD SVG 20010904//EN"
 "http://www.w3.org/TR/2001/REC-SVG-20010904/DTD/svg10.dtd">
<svg version="1.0" xmlns="http://www.w3.org/2000/svg"
 width="700.000000pt" height="700.000000pt" viewBox="0 0 700.000000 700.000000"
 preserveAspectRatio="xMidYMid meet">
<metadata>
Created by potrace 1.14, written by Peter Selinger 2001-2017
</metadata>
<g transform="translate(0.000000,700.000000) scale(0.100000,-0.100000)"
fill="#000000" stroke="none">
<path d="M3278 6995 c-1 -1 -42 -5 -89 -9 -47 -4 -95 -8 -105 -10 -10 -2 -41
-7 -69 -10 -93 -12 -130 -18 -135 -21 -3 -2 -24 -6 -46 -9 -57 -9 -69 -12
-164 -36 -47 -12 -95 -24 -107 -26 -39 -7 -261 -84 -367 -125 -127 -51 -346
-157 -456 -222 -74 -43 -274 -174 -304 -198 -6 -5 -49 -39 -96 -76 -419 -329
-753 -741 -989 -1224 -39 -80 -71 -149 -71 -153 0 -5 -7 -22 -15 -39 -65 -139
-161 -459 -199 -662 -32 -166 -38 -208 -53 -375 -15 -165 -8 -592 12 -711 2
-13 6 -46 9 -74 20 -171 80 -428 148 -630 240 -714 703 -1330 1323 -1761 365
-253 813 -450 1230 -540 74 -16 211 -41 274 -50 25 -3 57 -8 71 -10 162 -25
683 -25 841 1 13 2 47 7 74 10 71 10 87 13 115 18 14 3 43 8 65 12 22 4 67 14
100 22 33 8 71 17 85 20 62 11 278 80 400 128 250 97 451 201 675 350 467 309
850 722 1125 1214 54 98 152 301 165 342 4 13 11 29 15 34 9 10 54 136 96 265
21 66 68 238 80 295 16 79 54 301 59 350 4 33 9 71 11 85 9 47 11 525 4 605
-13 130 -21 202 -25 227 -3 13 -8 43 -11 68 -3 25 -7 53 -10 62 -5 18 -11 46
-20 93 -13 77 -66 272 -104 385 -244 730 -741 1381 -1376 1801 -164 109 -388
232 -534 294 -36 15 -83 35 -105 45 -165 73 -531 174 -740 204 -23 4 -52 8
-65 11 -13 3 -52 7 -86 11 -33 3 -74 8 -90 10 -33 5 -540 14 -546 9z"/>
</g>
</svg>
